<?xml version="1.0" encoding="UTF-8" standalone="no"?>
<svg
   xmlns:dc="http://purl.org/dc/elements/1.1/"
   xmlns:cc="http://creativecommons.org/ns#"
   xmlns:rdf="http://www.w3.org/1999/02/22-rdf-syntax-ns#"
   xmlns:svg="http://www.w3.org/2000/svg"
   xmlns="http://www.w3.org/2000/svg"
   xmlns:sodipodi="http://sodipodi.sourceforge.net/DTD/sodipodi-0.dtd"
   xmlns:inkscape="http://www.inkscape.org/namespaces/inkscape"
   inkscape:version="1.0 (4035a4fb49, 2020-05-01)"
   sodipodi:docname="iconfinder_plus_1814113.svg"
   xml:space="preserve"
   viewBox="0 0 64 64"
   version="1.1"
   style="enable-background:new 0 0 64 64;"
   id="Layer_1"><metadata
     id="metadata15"><rdf:RDF><cc:Work
         rdf:about=""><dc:format>image/svg+xml</dc:format><dc:type
           rdf:resource="http://purl.org/dc/dcmitype/StillImage" /></cc:Work></rdf:RDF></metadata><defs
     id="defs13" /><sodipodi:namedview
     inkscape:current-layer="Layer_1"
     inkscape:window-maximized="1"
     inkscape:window-y="-9"
     inkscape:window-x="-9"
     inkscape:cy="32"
     inkscape:cx="32"
     inkscape:zoom="12.96875"
     showgrid="false"
     id="namedview11"
     inkscape:window-height="1001"
     inkscape:window-width="1920"
     inkscape:pageshadow="2"
     inkscape:pageopacity="0"
     guidetolerance="10"
     gridtolerance="10"
     objecttolerance="10"
     borderopacity="1"
     bordercolor="#666666"
     pagecolor="#ffffff" /><style
     id="style2"
     type="text/css">
	.st0{fill:#134563;}
</style><g
     style="fill:#c4c2ca;fill-opacity:1"
     id="g8"><g
       style="fill:#c4c2ca;fill-opacity:1"
       transform="translate(28.000000, 278.000000)"
       id="Icon-Plus"><path
         style="fill:#c4c2ca;fill-opacity:1"
         id="Fill-38"
         d="M4-222.1c-13.2,0-23.9-10.7-23.9-23.9c0-13.2,10.7-23.9,23.9-23.9s23.9,10.7,23.9,23.9     C27.9-232.8,17.2-222.1,4-222.1L4-222.1z M4-267.3c-11.7,0-21.3,9.6-21.3,21.3s9.6,21.3,21.3,21.3s21.3-9.6,21.3-21.3     S15.7-267.3,4-267.3L4-267.3z"
         class="st0" /><polygon
         style="fill:#c4c2ca;fill-opacity:1"
         points="-8.7,-247.4 16.7,-247.4 16.7,-244.6 -8.7,-244.6    "
         id="Fill-39"
         class="st0" /><polygon
         style="fill:#c4c2ca;fill-opacity:1"
         points="2.6,-258.7 5.4,-258.7 5.4,-233.3 2.6,-233.3    "
         id="Fill-40"
         class="st0" /></g></g></svg>
